<mxfile host="app.diagrams.net" modified="2024-01-19T10:40:22.621Z" agent="Mozilla/5.0 (Windows NT 10.0; Win64; x64) AppleWebKit/537.36 (KHTML, like Gecko) Chrome/120.0.0.0 Safari/537.36" etag="07Eoyz-3oB0mgbbHgu84" version="22.1.20" type="device">
  <diagram name="Page-1" id="rc0uClVn3gRNKsO3K7OQ">
    <mxGraphModel dx="1434" dy="746" grid="1" gridSize="10" guides="1" tooltips="1" connect="1" arrows="1" fold="1" page="1" pageScale="1" pageWidth="850" pageHeight="1100" math="0" shadow="0">
      <root>
        <mxCell id="0" />
        <mxCell id="1" parent="0" />
        <mxCell id="K7L01zhTOzBwpwJ-5Bq4-91" value="&lt;font style=&quot;font-size: 18px;&quot;&gt;reallyold&lt;/font&gt;" style="rounded=0;whiteSpace=wrap;html=1;labelPosition=center;verticalLabelPosition=top;align=center;verticalAlign=bottom;" parent="1" vertex="1">
          <mxGeometry x="270" y="100" width="370" height="100" as="geometry" />
        </mxCell>
        <mxCell id="K7L01zhTOzBwpwJ-5Bq4-92" value="O1&lt;br&gt;G_OLD" style="ellipse;whiteSpace=wrap;html=1;aspect=fixed;fillColor=#647687;fontColor=#ffffff;strokeColor=#314354;" parent="1" vertex="1">
          <mxGeometry x="290" y="110" width="80" height="80" as="geometry" />
        </mxCell>
        <mxCell id="K7L01zhTOzBwpwJ-5Bq4-93" style="edgeStyle=orthogonalEdgeStyle;rounded=0;orthogonalLoop=1;jettySize=auto;html=1;exitX=0;exitY=0.5;exitDx=0;exitDy=0;entryX=1;entryY=0.5;entryDx=0;entryDy=0;" parent="1" source="K7L01zhTOzBwpwJ-5Bq4-94" target="K7L01zhTOzBwpwJ-5Bq4-92" edge="1">
          <mxGeometry relative="1" as="geometry" />
        </mxCell>
        <mxCell id="K7L01zhTOzBwpwJ-5Bq4-94" value="O2&lt;br&gt;G_OLD" style="ellipse;whiteSpace=wrap;html=1;aspect=fixed;fillColor=#647687;strokeColor=#314354;fontColor=#ffffff;" parent="1" vertex="1">
          <mxGeometry x="390" y="110" width="80" height="80" as="geometry" />
        </mxCell>
        <mxCell id="K7L01zhTOzBwpwJ-5Bq4-95" value="&lt;font style=&quot;font-size: 16px;&quot;&gt;g-&amp;gt;allgc&lt;/font&gt;" style="rounded=1;whiteSpace=wrap;html=1;" parent="1" vertex="1">
          <mxGeometry x="520" y="20" width="90" height="30" as="geometry" />
        </mxCell>
        <mxCell id="K7L01zhTOzBwpwJ-5Bq4-97" style="edgeStyle=orthogonalEdgeStyle;rounded=0;orthogonalLoop=1;jettySize=auto;html=1;exitX=0;exitY=0.5;exitDx=0;exitDy=0;entryX=1;entryY=0.5;entryDx=0;entryDy=0;" parent="1" source="K7L01zhTOzBwpwJ-5Bq4-98" target="K7L01zhTOzBwpwJ-5Bq4-94" edge="1">
          <mxGeometry relative="1" as="geometry" />
        </mxCell>
        <mxCell id="K7L01zhTOzBwpwJ-5Bq4-98" value="O4&lt;br&gt;G_OLD" style="ellipse;whiteSpace=wrap;html=1;aspect=fixed;fillColor=#647687;strokeColor=#314354;fontColor=#ffffff;" parent="1" vertex="1">
          <mxGeometry x="520" y="110" width="80" height="80" as="geometry" />
        </mxCell>
        <mxCell id="K7L01zhTOzBwpwJ-5Bq4-99" value="&lt;font style=&quot;font-size: 16px;&quot;&gt;ref&lt;/font&gt;" style="edgeStyle=orthogonalEdgeStyle;rounded=0;orthogonalLoop=1;jettySize=auto;html=1;exitX=0.5;exitY=0;exitDx=0;exitDy=0;entryX=0.5;entryY=0;entryDx=0;entryDy=0;curved=1;" parent="1" source="K7L01zhTOzBwpwJ-5Bq4-94" target="K7L01zhTOzBwpwJ-5Bq4-98" edge="1">
          <mxGeometry relative="1" as="geometry">
            <Array as="points">
              <mxPoint x="430" y="70" />
              <mxPoint x="560" y="70" />
            </Array>
          </mxGeometry>
        </mxCell>
        <mxCell id="K7L01zhTOzBwpwJ-5Bq4-100" value="&lt;font style=&quot;font-size: 18px;&quot;&gt;grayagain&lt;/font&gt;" style="rounded=0;whiteSpace=wrap;html=1;labelPosition=center;verticalLabelPosition=top;align=center;verticalAlign=bottom;" parent="1" vertex="1">
          <mxGeometry y="100" width="220" height="100" as="geometry" />
        </mxCell>
        <mxCell id="K7L01zhTOzBwpwJ-5Bq4-101" value="&lt;font style=&quot;font-size: 18px;&quot;&gt;old1&lt;/font&gt;" style="rounded=0;whiteSpace=wrap;html=1;labelPosition=center;verticalLabelPosition=top;align=center;verticalAlign=bottom;" parent="1" vertex="1">
          <mxGeometry x="639" y="100" width="100" height="100" as="geometry" />
        </mxCell>
        <mxCell id="K7L01zhTOzBwpwJ-5Bq4-102" style="edgeStyle=orthogonalEdgeStyle;rounded=0;orthogonalLoop=1;jettySize=auto;html=1;exitX=0;exitY=0.5;exitDx=0;exitDy=0;" parent="1" source="K7L01zhTOzBwpwJ-5Bq4-103" target="K7L01zhTOzBwpwJ-5Bq4-98" edge="1">
          <mxGeometry relative="1" as="geometry" />
        </mxCell>
        <mxCell id="K7L01zhTOzBwpwJ-5Bq4-103" value="O7&lt;br&gt;G_OLD1" style="ellipse;whiteSpace=wrap;html=1;aspect=fixed;fillColor=#647687;fontColor=#ffffff;strokeColor=#314354;" parent="1" vertex="1">
          <mxGeometry x="649" y="110" width="80" height="80" as="geometry" />
        </mxCell>
        <mxCell id="K7L01zhTOzBwpwJ-5Bq4-104" value="&lt;font style=&quot;font-size: 16px;&quot;&gt;ref&lt;/font&gt;" style="edgeStyle=orthogonalEdgeStyle;rounded=0;orthogonalLoop=1;jettySize=auto;html=1;exitX=0.5;exitY=1;exitDx=0;exitDy=0;entryX=0.5;entryY=1;entryDx=0;entryDy=0;curved=1;" parent="1" source="K7L01zhTOzBwpwJ-5Bq4-94" target="K7L01zhTOzBwpwJ-5Bq4-103" edge="1">
          <mxGeometry relative="1" as="geometry">
            <Array as="points">
              <mxPoint x="430" y="220" />
              <mxPoint x="690" y="220" />
            </Array>
          </mxGeometry>
        </mxCell>
        <mxCell id="K7L01zhTOzBwpwJ-5Bq4-105" value="&lt;font style=&quot;font-size: 18px;&quot;&gt;survival&lt;/font&gt;" style="rounded=0;whiteSpace=wrap;html=1;labelPosition=center;verticalLabelPosition=top;align=center;verticalAlign=bottom;" parent="1" vertex="1">
          <mxGeometry x="739" y="100" width="211" height="100" as="geometry" />
        </mxCell>
        <mxCell id="K7L01zhTOzBwpwJ-5Bq4-106" style="edgeStyle=orthogonalEdgeStyle;rounded=0;orthogonalLoop=1;jettySize=auto;html=1;exitX=0;exitY=0.5;exitDx=0;exitDy=0;entryX=1;entryY=0.5;entryDx=0;entryDy=0;" parent="1" source="K7L01zhTOzBwpwJ-5Bq4-107" target="K7L01zhTOzBwpwJ-5Bq4-103" edge="1">
          <mxGeometry relative="1" as="geometry" />
        </mxCell>
        <mxCell id="K7L01zhTOzBwpwJ-5Bq4-107" value="O8&lt;br&gt;G_SURVIVAL" style="ellipse;whiteSpace=wrap;html=1;aspect=fixed;" parent="1" vertex="1">
          <mxGeometry x="749" y="110" width="80" height="80" as="geometry" />
        </mxCell>
        <mxCell id="K7L01zhTOzBwpwJ-5Bq4-108" style="edgeStyle=orthogonalEdgeStyle;rounded=0;orthogonalLoop=1;jettySize=auto;html=1;exitX=0;exitY=0.5;exitDx=0;exitDy=0;" parent="1" source="K7L01zhTOzBwpwJ-5Bq4-110" target="K7L01zhTOzBwpwJ-5Bq4-107" edge="1">
          <mxGeometry relative="1" as="geometry" />
        </mxCell>
        <mxCell id="K7L01zhTOzBwpwJ-5Bq4-109" value="&lt;font style=&quot;font-size: 16px;&quot;&gt;ref&lt;/font&gt;" style="edgeStyle=orthogonalEdgeStyle;rounded=0;orthogonalLoop=1;jettySize=auto;html=1;exitX=0.5;exitY=1;exitDx=0;exitDy=0;entryX=0.5;entryY=1;entryDx=0;entryDy=0;curved=1;" parent="1" source="K7L01zhTOzBwpwJ-5Bq4-110" target="K7L01zhTOzBwpwJ-5Bq4-107" edge="1">
          <mxGeometry relative="1" as="geometry" />
        </mxCell>
        <mxCell id="K7L01zhTOzBwpwJ-5Bq4-110" value="O9&lt;br&gt;G_OLD1" style="ellipse;whiteSpace=wrap;html=1;aspect=fixed;fillColor=#647687;strokeColor=#314354;fontColor=#ffffff;" parent="1" vertex="1">
          <mxGeometry x="850" y="110" width="80" height="80" as="geometry" />
        </mxCell>
        <mxCell id="K7L01zhTOzBwpwJ-5Bq4-114" value="&lt;font style=&quot;font-size: 16px;&quot;&gt;ref&lt;/font&gt;" style="edgeStyle=orthogonalEdgeStyle;rounded=0;orthogonalLoop=1;jettySize=auto;html=1;exitX=0.5;exitY=1;exitDx=0;exitDy=0;entryX=0.5;entryY=1;entryDx=0;entryDy=0;curved=1;" parent="1" source="K7L01zhTOzBwpwJ-5Bq4-98" target="K7L01zhTOzBwpwJ-5Bq4-110" edge="1">
          <mxGeometry relative="1" as="geometry">
            <Array as="points">
              <mxPoint x="560" y="230" />
              <mxPoint x="890" y="230" />
            </Array>
          </mxGeometry>
        </mxCell>
        <mxCell id="wRI1aaOl5df-rO8w_lBx-1" value="&lt;font style=&quot;font-size: 18px;&quot;&gt;new&lt;/font&gt;" style="rounded=0;whiteSpace=wrap;html=1;labelPosition=center;verticalLabelPosition=top;align=center;verticalAlign=bottom;" vertex="1" parent="1">
          <mxGeometry x="950" y="100" width="120" height="100" as="geometry" />
        </mxCell>
        <mxCell id="wRI1aaOl5df-rO8w_lBx-3" style="edgeStyle=orthogonalEdgeStyle;rounded=0;orthogonalLoop=1;jettySize=auto;html=1;exitX=0;exitY=0.5;exitDx=0;exitDy=0;" edge="1" parent="1" source="wRI1aaOl5df-rO8w_lBx-2" target="K7L01zhTOzBwpwJ-5Bq4-110">
          <mxGeometry relative="1" as="geometry" />
        </mxCell>
        <mxCell id="wRI1aaOl5df-rO8w_lBx-2" value="O10&lt;br&gt;G_NEW" style="ellipse;whiteSpace=wrap;html=1;aspect=fixed;" vertex="1" parent="1">
          <mxGeometry x="970" y="110" width="80" height="80" as="geometry" />
        </mxCell>
        <mxCell id="wRI1aaOl5df-rO8w_lBx-4" style="edgeStyle=orthogonalEdgeStyle;rounded=0;orthogonalLoop=1;jettySize=auto;html=1;exitX=1;exitY=0.5;exitDx=0;exitDy=0;entryX=0.5;entryY=0;entryDx=0;entryDy=0;" edge="1" parent="1" source="K7L01zhTOzBwpwJ-5Bq4-95" target="wRI1aaOl5df-rO8w_lBx-2">
          <mxGeometry relative="1" as="geometry" />
        </mxCell>
        <mxCell id="wRI1aaOl5df-rO8w_lBx-5" value="&lt;font style=&quot;font-size: 18px;&quot;&gt;reallyold&lt;/font&gt;" style="rounded=0;whiteSpace=wrap;html=1;labelPosition=center;verticalLabelPosition=top;align=center;verticalAlign=bottom;" vertex="1" parent="1">
          <mxGeometry x="270" y="400" width="370" height="100" as="geometry" />
        </mxCell>
        <mxCell id="wRI1aaOl5df-rO8w_lBx-6" value="O1&lt;br&gt;G_OLD" style="ellipse;whiteSpace=wrap;html=1;aspect=fixed;fillColor=#647687;fontColor=#ffffff;strokeColor=#314354;" vertex="1" parent="1">
          <mxGeometry x="290" y="410" width="80" height="80" as="geometry" />
        </mxCell>
        <mxCell id="wRI1aaOl5df-rO8w_lBx-7" style="edgeStyle=orthogonalEdgeStyle;rounded=0;orthogonalLoop=1;jettySize=auto;html=1;exitX=0;exitY=0.5;exitDx=0;exitDy=0;entryX=1;entryY=0.5;entryDx=0;entryDy=0;" edge="1" parent="1" source="wRI1aaOl5df-rO8w_lBx-8" target="wRI1aaOl5df-rO8w_lBx-6">
          <mxGeometry relative="1" as="geometry" />
        </mxCell>
        <mxCell id="wRI1aaOl5df-rO8w_lBx-8" value="O2&lt;br&gt;G_OLD" style="ellipse;whiteSpace=wrap;html=1;aspect=fixed;fillColor=#647687;strokeColor=#314354;fontColor=#ffffff;" vertex="1" parent="1">
          <mxGeometry x="390" y="410" width="80" height="80" as="geometry" />
        </mxCell>
        <mxCell id="wRI1aaOl5df-rO8w_lBx-9" value="&lt;font style=&quot;font-size: 16px;&quot;&gt;g-&amp;gt;allgc&lt;/font&gt;" style="rounded=1;whiteSpace=wrap;html=1;" vertex="1" parent="1">
          <mxGeometry x="520" y="320" width="90" height="30" as="geometry" />
        </mxCell>
        <mxCell id="wRI1aaOl5df-rO8w_lBx-10" style="edgeStyle=orthogonalEdgeStyle;rounded=0;orthogonalLoop=1;jettySize=auto;html=1;exitX=0;exitY=0.5;exitDx=0;exitDy=0;entryX=1;entryY=0.5;entryDx=0;entryDy=0;" edge="1" parent="1" source="wRI1aaOl5df-rO8w_lBx-11" target="wRI1aaOl5df-rO8w_lBx-8">
          <mxGeometry relative="1" as="geometry" />
        </mxCell>
        <mxCell id="wRI1aaOl5df-rO8w_lBx-11" value="O4&lt;br&gt;G_OLD" style="ellipse;whiteSpace=wrap;html=1;aspect=fixed;fillColor=#647687;strokeColor=#314354;fontColor=#ffffff;" vertex="1" parent="1">
          <mxGeometry x="520" y="410" width="80" height="80" as="geometry" />
        </mxCell>
        <mxCell id="wRI1aaOl5df-rO8w_lBx-12" value="&lt;font style=&quot;font-size: 16px;&quot;&gt;ref&lt;/font&gt;" style="edgeStyle=orthogonalEdgeStyle;rounded=0;orthogonalLoop=1;jettySize=auto;html=1;exitX=0.5;exitY=0;exitDx=0;exitDy=0;entryX=0.5;entryY=0;entryDx=0;entryDy=0;curved=1;" edge="1" parent="1" source="wRI1aaOl5df-rO8w_lBx-8" target="wRI1aaOl5df-rO8w_lBx-11">
          <mxGeometry relative="1" as="geometry">
            <Array as="points">
              <mxPoint x="430" y="370" />
              <mxPoint x="560" y="370" />
            </Array>
          </mxGeometry>
        </mxCell>
        <mxCell id="wRI1aaOl5df-rO8w_lBx-13" value="&lt;font style=&quot;font-size: 18px;&quot;&gt;grayagain&lt;/font&gt;" style="rounded=0;whiteSpace=wrap;html=1;labelPosition=center;verticalLabelPosition=top;align=center;verticalAlign=bottom;" vertex="1" parent="1">
          <mxGeometry y="400" width="220" height="100" as="geometry" />
        </mxCell>
        <mxCell id="wRI1aaOl5df-rO8w_lBx-14" value="&lt;font style=&quot;font-size: 18px;&quot;&gt;old1&lt;/font&gt;" style="rounded=0;whiteSpace=wrap;html=1;labelPosition=center;verticalLabelPosition=top;align=center;verticalAlign=bottom;" vertex="1" parent="1">
          <mxGeometry x="639" y="400" width="100" height="100" as="geometry" />
        </mxCell>
        <mxCell id="wRI1aaOl5df-rO8w_lBx-15" style="edgeStyle=orthogonalEdgeStyle;rounded=0;orthogonalLoop=1;jettySize=auto;html=1;exitX=0;exitY=0.5;exitDx=0;exitDy=0;" edge="1" parent="1" source="wRI1aaOl5df-rO8w_lBx-16" target="wRI1aaOl5df-rO8w_lBx-11">
          <mxGeometry relative="1" as="geometry" />
        </mxCell>
        <mxCell id="wRI1aaOl5df-rO8w_lBx-16" value="O7&lt;br&gt;G_OLD" style="ellipse;whiteSpace=wrap;html=1;aspect=fixed;fillColor=#bac8d3;strokeColor=#23445d;" vertex="1" parent="1">
          <mxGeometry x="649" y="410" width="80" height="80" as="geometry" />
        </mxCell>
        <mxCell id="wRI1aaOl5df-rO8w_lBx-17" value="&lt;font style=&quot;font-size: 16px;&quot;&gt;ref&lt;/font&gt;" style="edgeStyle=orthogonalEdgeStyle;rounded=0;orthogonalLoop=1;jettySize=auto;html=1;exitX=0.5;exitY=1;exitDx=0;exitDy=0;entryX=0.5;entryY=1;entryDx=0;entryDy=0;curved=1;" edge="1" parent="1" source="wRI1aaOl5df-rO8w_lBx-8" target="wRI1aaOl5df-rO8w_lBx-16">
          <mxGeometry relative="1" as="geometry">
            <Array as="points">
              <mxPoint x="430" y="520" />
              <mxPoint x="690" y="520" />
            </Array>
          </mxGeometry>
        </mxCell>
        <mxCell id="wRI1aaOl5df-rO8w_lBx-18" value="&lt;font style=&quot;font-size: 18px;&quot;&gt;survival&lt;/font&gt;" style="rounded=0;whiteSpace=wrap;html=1;labelPosition=center;verticalLabelPosition=top;align=center;verticalAlign=bottom;" vertex="1" parent="1">
          <mxGeometry x="739" y="400" width="211" height="100" as="geometry" />
        </mxCell>
        <mxCell id="wRI1aaOl5df-rO8w_lBx-19" style="edgeStyle=orthogonalEdgeStyle;rounded=0;orthogonalLoop=1;jettySize=auto;html=1;exitX=0;exitY=0.5;exitDx=0;exitDy=0;entryX=1;entryY=0.5;entryDx=0;entryDy=0;" edge="1" parent="1" source="wRI1aaOl5df-rO8w_lBx-20" target="wRI1aaOl5df-rO8w_lBx-16">
          <mxGeometry relative="1" as="geometry" />
        </mxCell>
        <mxCell id="wRI1aaOl5df-rO8w_lBx-20" value="O8&lt;br&gt;G_SURVIVAL" style="ellipse;whiteSpace=wrap;html=1;aspect=fixed;" vertex="1" parent="1">
          <mxGeometry x="749" y="410" width="80" height="80" as="geometry" />
        </mxCell>
        <mxCell id="wRI1aaOl5df-rO8w_lBx-21" style="edgeStyle=orthogonalEdgeStyle;rounded=0;orthogonalLoop=1;jettySize=auto;html=1;exitX=0;exitY=0.5;exitDx=0;exitDy=0;" edge="1" parent="1" source="wRI1aaOl5df-rO8w_lBx-23" target="wRI1aaOl5df-rO8w_lBx-20">
          <mxGeometry relative="1" as="geometry" />
        </mxCell>
        <mxCell id="wRI1aaOl5df-rO8w_lBx-22" value="&lt;font style=&quot;font-size: 16px;&quot;&gt;ref&lt;/font&gt;" style="edgeStyle=orthogonalEdgeStyle;rounded=0;orthogonalLoop=1;jettySize=auto;html=1;exitX=0.5;exitY=1;exitDx=0;exitDy=0;entryX=0.5;entryY=1;entryDx=0;entryDy=0;curved=1;" edge="1" parent="1" source="wRI1aaOl5df-rO8w_lBx-23" target="wRI1aaOl5df-rO8w_lBx-20">
          <mxGeometry relative="1" as="geometry" />
        </mxCell>
        <mxCell id="wRI1aaOl5df-rO8w_lBx-23" value="O9&lt;br&gt;G_OLD" style="ellipse;whiteSpace=wrap;html=1;aspect=fixed;fillColor=#bac8d3;strokeColor=#23445d;" vertex="1" parent="1">
          <mxGeometry x="850" y="410" width="80" height="80" as="geometry" />
        </mxCell>
        <mxCell id="wRI1aaOl5df-rO8w_lBx-24" value="&lt;font style=&quot;font-size: 16px;&quot;&gt;ref&lt;/font&gt;" style="edgeStyle=orthogonalEdgeStyle;rounded=0;orthogonalLoop=1;jettySize=auto;html=1;exitX=0.5;exitY=1;exitDx=0;exitDy=0;entryX=0.5;entryY=1;entryDx=0;entryDy=0;curved=1;" edge="1" parent="1" source="wRI1aaOl5df-rO8w_lBx-11" target="wRI1aaOl5df-rO8w_lBx-23">
          <mxGeometry relative="1" as="geometry">
            <Array as="points">
              <mxPoint x="560" y="530" />
              <mxPoint x="890" y="530" />
            </Array>
          </mxGeometry>
        </mxCell>
        <mxCell id="wRI1aaOl5df-rO8w_lBx-26" value="&lt;font style=&quot;font-size: 18px;&quot;&gt;new&lt;/font&gt;" style="rounded=0;whiteSpace=wrap;html=1;labelPosition=center;verticalLabelPosition=top;align=center;verticalAlign=bottom;" vertex="1" parent="1">
          <mxGeometry x="950" y="400" width="120" height="100" as="geometry" />
        </mxCell>
        <mxCell id="wRI1aaOl5df-rO8w_lBx-27" style="edgeStyle=orthogonalEdgeStyle;rounded=0;orthogonalLoop=1;jettySize=auto;html=1;exitX=0;exitY=0.5;exitDx=0;exitDy=0;" edge="1" parent="1" source="wRI1aaOl5df-rO8w_lBx-28" target="wRI1aaOl5df-rO8w_lBx-23">
          <mxGeometry relative="1" as="geometry" />
        </mxCell>
        <mxCell id="wRI1aaOl5df-rO8w_lBx-28" value="O10&lt;br&gt;G_NEW" style="ellipse;whiteSpace=wrap;html=1;aspect=fixed;" vertex="1" parent="1">
          <mxGeometry x="970" y="410" width="80" height="80" as="geometry" />
        </mxCell>
        <mxCell id="wRI1aaOl5df-rO8w_lBx-29" style="edgeStyle=orthogonalEdgeStyle;rounded=0;orthogonalLoop=1;jettySize=auto;html=1;exitX=1;exitY=0.5;exitDx=0;exitDy=0;entryX=0.5;entryY=0;entryDx=0;entryDy=0;" edge="1" parent="1" source="wRI1aaOl5df-rO8w_lBx-9" target="wRI1aaOl5df-rO8w_lBx-28">
          <mxGeometry relative="1" as="geometry" />
        </mxCell>
        <mxCell id="wRI1aaOl5df-rO8w_lBx-30" value="&lt;font style=&quot;font-size: 18px;&quot;&gt;reallyold&lt;/font&gt;" style="rounded=0;whiteSpace=wrap;html=1;labelPosition=center;verticalLabelPosition=top;align=center;verticalAlign=bottom;" vertex="1" parent="1">
          <mxGeometry x="270" y="710" width="370" height="100" as="geometry" />
        </mxCell>
        <mxCell id="wRI1aaOl5df-rO8w_lBx-31" value="O1&lt;br&gt;G_OLD" style="ellipse;whiteSpace=wrap;html=1;aspect=fixed;fillColor=#647687;fontColor=#ffffff;strokeColor=#314354;" vertex="1" parent="1">
          <mxGeometry x="290" y="720" width="80" height="80" as="geometry" />
        </mxCell>
        <mxCell id="wRI1aaOl5df-rO8w_lBx-32" style="edgeStyle=orthogonalEdgeStyle;rounded=0;orthogonalLoop=1;jettySize=auto;html=1;exitX=0;exitY=0.5;exitDx=0;exitDy=0;entryX=1;entryY=0.5;entryDx=0;entryDy=0;" edge="1" parent="1" source="wRI1aaOl5df-rO8w_lBx-33" target="wRI1aaOl5df-rO8w_lBx-31">
          <mxGeometry relative="1" as="geometry" />
        </mxCell>
        <mxCell id="wRI1aaOl5df-rO8w_lBx-33" value="O2&lt;br&gt;G_OLD" style="ellipse;whiteSpace=wrap;html=1;aspect=fixed;fillColor=#647687;strokeColor=#314354;fontColor=#ffffff;" vertex="1" parent="1">
          <mxGeometry x="390" y="720" width="80" height="80" as="geometry" />
        </mxCell>
        <mxCell id="wRI1aaOl5df-rO8w_lBx-34" value="&lt;font style=&quot;font-size: 16px;&quot;&gt;g-&amp;gt;allgc&lt;/font&gt;" style="rounded=1;whiteSpace=wrap;html=1;" vertex="1" parent="1">
          <mxGeometry x="520" y="630" width="90" height="30" as="geometry" />
        </mxCell>
        <mxCell id="wRI1aaOl5df-rO8w_lBx-35" style="edgeStyle=orthogonalEdgeStyle;rounded=0;orthogonalLoop=1;jettySize=auto;html=1;exitX=0;exitY=0.5;exitDx=0;exitDy=0;entryX=1;entryY=0.5;entryDx=0;entryDy=0;" edge="1" parent="1" source="wRI1aaOl5df-rO8w_lBx-36" target="wRI1aaOl5df-rO8w_lBx-33">
          <mxGeometry relative="1" as="geometry" />
        </mxCell>
        <mxCell id="wRI1aaOl5df-rO8w_lBx-36" value="O4&lt;br&gt;G_OLD" style="ellipse;whiteSpace=wrap;html=1;aspect=fixed;fillColor=#647687;strokeColor=#314354;fontColor=#ffffff;" vertex="1" parent="1">
          <mxGeometry x="520" y="720" width="80" height="80" as="geometry" />
        </mxCell>
        <mxCell id="wRI1aaOl5df-rO8w_lBx-37" value="&lt;font style=&quot;font-size: 16px;&quot;&gt;ref&lt;/font&gt;" style="edgeStyle=orthogonalEdgeStyle;rounded=0;orthogonalLoop=1;jettySize=auto;html=1;exitX=0.5;exitY=0;exitDx=0;exitDy=0;entryX=0.5;entryY=0;entryDx=0;entryDy=0;curved=1;" edge="1" parent="1" source="wRI1aaOl5df-rO8w_lBx-33" target="wRI1aaOl5df-rO8w_lBx-36">
          <mxGeometry relative="1" as="geometry">
            <Array as="points">
              <mxPoint x="430" y="680" />
              <mxPoint x="560" y="680" />
            </Array>
          </mxGeometry>
        </mxCell>
        <mxCell id="wRI1aaOl5df-rO8w_lBx-38" value="&lt;font style=&quot;font-size: 18px;&quot;&gt;grayagain&lt;/font&gt;" style="rounded=0;whiteSpace=wrap;html=1;labelPosition=center;verticalLabelPosition=top;align=center;verticalAlign=bottom;" vertex="1" parent="1">
          <mxGeometry y="710" width="220" height="100" as="geometry" />
        </mxCell>
        <mxCell id="wRI1aaOl5df-rO8w_lBx-39" value="&lt;font style=&quot;font-size: 18px;&quot;&gt;old1&lt;/font&gt;" style="rounded=0;whiteSpace=wrap;html=1;labelPosition=center;verticalLabelPosition=top;align=center;verticalAlign=bottom;" vertex="1" parent="1">
          <mxGeometry x="639" y="710" width="100" height="100" as="geometry" />
        </mxCell>
        <mxCell id="wRI1aaOl5df-rO8w_lBx-40" style="edgeStyle=orthogonalEdgeStyle;rounded=0;orthogonalLoop=1;jettySize=auto;html=1;exitX=0;exitY=0.5;exitDx=0;exitDy=0;" edge="1" parent="1" source="wRI1aaOl5df-rO8w_lBx-41" target="wRI1aaOl5df-rO8w_lBx-36">
          <mxGeometry relative="1" as="geometry" />
        </mxCell>
        <mxCell id="wRI1aaOl5df-rO8w_lBx-41" value="O7&lt;br&gt;G_OLD" style="ellipse;whiteSpace=wrap;html=1;aspect=fixed;fillColor=#647687;strokeColor=#314354;fontColor=#ffffff;" vertex="1" parent="1">
          <mxGeometry x="649" y="720" width="80" height="80" as="geometry" />
        </mxCell>
        <mxCell id="wRI1aaOl5df-rO8w_lBx-42" value="&lt;font style=&quot;font-size: 16px;&quot;&gt;ref&lt;/font&gt;" style="edgeStyle=orthogonalEdgeStyle;rounded=0;orthogonalLoop=1;jettySize=auto;html=1;exitX=0.5;exitY=1;exitDx=0;exitDy=0;entryX=0.5;entryY=1;entryDx=0;entryDy=0;curved=1;" edge="1" parent="1" source="wRI1aaOl5df-rO8w_lBx-33" target="wRI1aaOl5df-rO8w_lBx-41">
          <mxGeometry relative="1" as="geometry">
            <Array as="points">
              <mxPoint x="430" y="830" />
              <mxPoint x="690" y="830" />
            </Array>
          </mxGeometry>
        </mxCell>
        <mxCell id="wRI1aaOl5df-rO8w_lBx-43" value="&lt;font style=&quot;font-size: 18px;&quot;&gt;survival&lt;/font&gt;" style="rounded=0;whiteSpace=wrap;html=1;labelPosition=center;verticalLabelPosition=top;align=center;verticalAlign=bottom;" vertex="1" parent="1">
          <mxGeometry x="739" y="710" width="211" height="100" as="geometry" />
        </mxCell>
        <mxCell id="wRI1aaOl5df-rO8w_lBx-44" style="edgeStyle=orthogonalEdgeStyle;rounded=0;orthogonalLoop=1;jettySize=auto;html=1;exitX=0;exitY=0.5;exitDx=0;exitDy=0;entryX=1;entryY=0.5;entryDx=0;entryDy=0;" edge="1" parent="1" source="wRI1aaOl5df-rO8w_lBx-45" target="wRI1aaOl5df-rO8w_lBx-41">
          <mxGeometry relative="1" as="geometry" />
        </mxCell>
        <mxCell id="wRI1aaOl5df-rO8w_lBx-45" value="O8&lt;br&gt;G_OLD1" style="ellipse;whiteSpace=wrap;html=1;aspect=fixed;fillColor=#647687;fontColor=#ffffff;strokeColor=#314354;" vertex="1" parent="1">
          <mxGeometry x="749" y="720" width="80" height="80" as="geometry" />
        </mxCell>
        <mxCell id="wRI1aaOl5df-rO8w_lBx-46" style="edgeStyle=orthogonalEdgeStyle;rounded=0;orthogonalLoop=1;jettySize=auto;html=1;exitX=0;exitY=0.5;exitDx=0;exitDy=0;" edge="1" parent="1" source="wRI1aaOl5df-rO8w_lBx-48" target="wRI1aaOl5df-rO8w_lBx-45">
          <mxGeometry relative="1" as="geometry" />
        </mxCell>
        <mxCell id="wRI1aaOl5df-rO8w_lBx-47" value="&lt;font style=&quot;font-size: 16px;&quot;&gt;ref&lt;/font&gt;" style="edgeStyle=orthogonalEdgeStyle;rounded=0;orthogonalLoop=1;jettySize=auto;html=1;exitX=0.5;exitY=1;exitDx=0;exitDy=0;entryX=0.5;entryY=1;entryDx=0;entryDy=0;curved=1;" edge="1" parent="1" source="wRI1aaOl5df-rO8w_lBx-48" target="wRI1aaOl5df-rO8w_lBx-45">
          <mxGeometry relative="1" as="geometry" />
        </mxCell>
        <mxCell id="wRI1aaOl5df-rO8w_lBx-48" value="O9&lt;br&gt;G_OLD" style="ellipse;whiteSpace=wrap;html=1;aspect=fixed;fillColor=#647687;strokeColor=#314354;fontColor=#ffffff;" vertex="1" parent="1">
          <mxGeometry x="850" y="720" width="80" height="80" as="geometry" />
        </mxCell>
        <mxCell id="wRI1aaOl5df-rO8w_lBx-49" value="&lt;font style=&quot;font-size: 16px;&quot;&gt;ref&lt;/font&gt;" style="edgeStyle=orthogonalEdgeStyle;rounded=0;orthogonalLoop=1;jettySize=auto;html=1;exitX=0.5;exitY=1;exitDx=0;exitDy=0;entryX=0.5;entryY=1;entryDx=0;entryDy=0;curved=1;" edge="1" parent="1" source="wRI1aaOl5df-rO8w_lBx-36" target="wRI1aaOl5df-rO8w_lBx-48">
          <mxGeometry relative="1" as="geometry">
            <Array as="points">
              <mxPoint x="560" y="840" />
              <mxPoint x="890" y="840" />
            </Array>
          </mxGeometry>
        </mxCell>
        <mxCell id="wRI1aaOl5df-rO8w_lBx-51" value="&lt;font style=&quot;font-size: 18px;&quot;&gt;new&lt;/font&gt;" style="rounded=0;whiteSpace=wrap;html=1;labelPosition=center;verticalLabelPosition=top;align=center;verticalAlign=bottom;" vertex="1" parent="1">
          <mxGeometry x="950" y="710" width="120" height="100" as="geometry" />
        </mxCell>
        <mxCell id="wRI1aaOl5df-rO8w_lBx-52" style="edgeStyle=orthogonalEdgeStyle;rounded=0;orthogonalLoop=1;jettySize=auto;html=1;exitX=0;exitY=0.5;exitDx=0;exitDy=0;" edge="1" parent="1" source="wRI1aaOl5df-rO8w_lBx-53" target="wRI1aaOl5df-rO8w_lBx-48">
          <mxGeometry relative="1" as="geometry" />
        </mxCell>
        <mxCell id="wRI1aaOl5df-rO8w_lBx-53" value="O10&lt;br&gt;G_NEW" style="ellipse;whiteSpace=wrap;html=1;aspect=fixed;" vertex="1" parent="1">
          <mxGeometry x="970" y="720" width="80" height="80" as="geometry" />
        </mxCell>
        <mxCell id="wRI1aaOl5df-rO8w_lBx-54" style="edgeStyle=orthogonalEdgeStyle;rounded=0;orthogonalLoop=1;jettySize=auto;html=1;exitX=1;exitY=0.5;exitDx=0;exitDy=0;entryX=0.5;entryY=0;entryDx=0;entryDy=0;" edge="1" parent="1" source="wRI1aaOl5df-rO8w_lBx-34" target="wRI1aaOl5df-rO8w_lBx-53">
          <mxGeometry relative="1" as="geometry" />
        </mxCell>
        <mxCell id="wRI1aaOl5df-rO8w_lBx-55" value="&lt;font style=&quot;font-size: 18px;&quot;&gt;reallyold&lt;/font&gt;" style="rounded=0;whiteSpace=wrap;html=1;labelPosition=center;verticalLabelPosition=top;align=center;verticalAlign=bottom;" vertex="1" parent="1">
          <mxGeometry x="270" y="1010" width="470" height="100" as="geometry" />
        </mxCell>
        <mxCell id="wRI1aaOl5df-rO8w_lBx-56" value="O1&lt;br&gt;G_OLD" style="ellipse;whiteSpace=wrap;html=1;aspect=fixed;fillColor=#647687;fontColor=#ffffff;strokeColor=#314354;" vertex="1" parent="1">
          <mxGeometry x="290" y="1020" width="80" height="80" as="geometry" />
        </mxCell>
        <mxCell id="wRI1aaOl5df-rO8w_lBx-57" style="edgeStyle=orthogonalEdgeStyle;rounded=0;orthogonalLoop=1;jettySize=auto;html=1;exitX=0;exitY=0.5;exitDx=0;exitDy=0;entryX=1;entryY=0.5;entryDx=0;entryDy=0;" edge="1" parent="1" source="wRI1aaOl5df-rO8w_lBx-58" target="wRI1aaOl5df-rO8w_lBx-56">
          <mxGeometry relative="1" as="geometry" />
        </mxCell>
        <mxCell id="wRI1aaOl5df-rO8w_lBx-58" value="O2&lt;br&gt;G_OLD" style="ellipse;whiteSpace=wrap;html=1;aspect=fixed;fillColor=#647687;strokeColor=#314354;fontColor=#ffffff;" vertex="1" parent="1">
          <mxGeometry x="390" y="1020" width="80" height="80" as="geometry" />
        </mxCell>
        <mxCell id="wRI1aaOl5df-rO8w_lBx-59" value="&lt;font style=&quot;font-size: 16px;&quot;&gt;g-&amp;gt;allgc&lt;/font&gt;" style="rounded=1;whiteSpace=wrap;html=1;" vertex="1" parent="1">
          <mxGeometry x="520" y="930" width="90" height="30" as="geometry" />
        </mxCell>
        <mxCell id="wRI1aaOl5df-rO8w_lBx-60" style="edgeStyle=orthogonalEdgeStyle;rounded=0;orthogonalLoop=1;jettySize=auto;html=1;exitX=0;exitY=0.5;exitDx=0;exitDy=0;entryX=1;entryY=0.5;entryDx=0;entryDy=0;" edge="1" parent="1" source="wRI1aaOl5df-rO8w_lBx-61" target="wRI1aaOl5df-rO8w_lBx-58">
          <mxGeometry relative="1" as="geometry" />
        </mxCell>
        <mxCell id="wRI1aaOl5df-rO8w_lBx-61" value="O4&lt;br&gt;G_OLD" style="ellipse;whiteSpace=wrap;html=1;aspect=fixed;fillColor=#647687;strokeColor=#314354;fontColor=#ffffff;" vertex="1" parent="1">
          <mxGeometry x="520" y="1020" width="80" height="80" as="geometry" />
        </mxCell>
        <mxCell id="wRI1aaOl5df-rO8w_lBx-62" value="&lt;font style=&quot;font-size: 16px;&quot;&gt;ref&lt;/font&gt;" style="edgeStyle=orthogonalEdgeStyle;rounded=0;orthogonalLoop=1;jettySize=auto;html=1;exitX=0.5;exitY=0;exitDx=0;exitDy=0;entryX=0.5;entryY=0;entryDx=0;entryDy=0;curved=1;" edge="1" parent="1" source="wRI1aaOl5df-rO8w_lBx-58" target="wRI1aaOl5df-rO8w_lBx-61">
          <mxGeometry relative="1" as="geometry">
            <Array as="points">
              <mxPoint x="430" y="980" />
              <mxPoint x="560" y="980" />
            </Array>
          </mxGeometry>
        </mxCell>
        <mxCell id="wRI1aaOl5df-rO8w_lBx-63" value="&lt;font style=&quot;font-size: 18px;&quot;&gt;grayagain&lt;/font&gt;" style="rounded=0;whiteSpace=wrap;html=1;labelPosition=center;verticalLabelPosition=top;align=center;verticalAlign=bottom;" vertex="1" parent="1">
          <mxGeometry y="1010" width="220" height="100" as="geometry" />
        </mxCell>
        <mxCell id="wRI1aaOl5df-rO8w_lBx-65" style="edgeStyle=orthogonalEdgeStyle;rounded=0;orthogonalLoop=1;jettySize=auto;html=1;exitX=0;exitY=0.5;exitDx=0;exitDy=0;" edge="1" parent="1" source="wRI1aaOl5df-rO8w_lBx-66" target="wRI1aaOl5df-rO8w_lBx-61">
          <mxGeometry relative="1" as="geometry" />
        </mxCell>
        <mxCell id="wRI1aaOl5df-rO8w_lBx-66" value="O7&lt;br&gt;G_OLD" style="ellipse;whiteSpace=wrap;html=1;aspect=fixed;fillColor=#647687;strokeColor=#314354;fontColor=#ffffff;" vertex="1" parent="1">
          <mxGeometry x="649" y="1020" width="80" height="80" as="geometry" />
        </mxCell>
        <mxCell id="wRI1aaOl5df-rO8w_lBx-67" value="&lt;font style=&quot;font-size: 16px;&quot;&gt;ref&lt;/font&gt;" style="edgeStyle=orthogonalEdgeStyle;rounded=0;orthogonalLoop=1;jettySize=auto;html=1;exitX=0.5;exitY=1;exitDx=0;exitDy=0;entryX=0.5;entryY=1;entryDx=0;entryDy=0;curved=1;" edge="1" parent="1" source="wRI1aaOl5df-rO8w_lBx-58" target="wRI1aaOl5df-rO8w_lBx-66">
          <mxGeometry relative="1" as="geometry">
            <Array as="points">
              <mxPoint x="430" y="1130" />
              <mxPoint x="690" y="1130" />
            </Array>
          </mxGeometry>
        </mxCell>
        <mxCell id="wRI1aaOl5df-rO8w_lBx-68" value="&lt;font style=&quot;font-size: 18px;&quot;&gt;old1&lt;/font&gt;" style="rounded=0;whiteSpace=wrap;html=1;labelPosition=center;verticalLabelPosition=top;align=center;verticalAlign=bottom;" vertex="1" parent="1">
          <mxGeometry x="739" y="1010" width="211" height="100" as="geometry" />
        </mxCell>
        <mxCell id="wRI1aaOl5df-rO8w_lBx-69" style="edgeStyle=orthogonalEdgeStyle;rounded=0;orthogonalLoop=1;jettySize=auto;html=1;exitX=0;exitY=0.5;exitDx=0;exitDy=0;entryX=1;entryY=0.5;entryDx=0;entryDy=0;" edge="1" parent="1" source="wRI1aaOl5df-rO8w_lBx-70" target="wRI1aaOl5df-rO8w_lBx-66">
          <mxGeometry relative="1" as="geometry" />
        </mxCell>
        <mxCell id="wRI1aaOl5df-rO8w_lBx-70" value="O8&lt;br&gt;G_OLD1" style="ellipse;whiteSpace=wrap;html=1;aspect=fixed;fillColor=#647687;fontColor=#ffffff;strokeColor=#314354;" vertex="1" parent="1">
          <mxGeometry x="749" y="1020" width="80" height="80" as="geometry" />
        </mxCell>
        <mxCell id="wRI1aaOl5df-rO8w_lBx-71" style="edgeStyle=orthogonalEdgeStyle;rounded=0;orthogonalLoop=1;jettySize=auto;html=1;exitX=0;exitY=0.5;exitDx=0;exitDy=0;" edge="1" parent="1" source="wRI1aaOl5df-rO8w_lBx-73" target="wRI1aaOl5df-rO8w_lBx-70">
          <mxGeometry relative="1" as="geometry" />
        </mxCell>
        <mxCell id="wRI1aaOl5df-rO8w_lBx-72" value="&lt;font style=&quot;font-size: 16px;&quot;&gt;ref&lt;/font&gt;" style="edgeStyle=orthogonalEdgeStyle;rounded=0;orthogonalLoop=1;jettySize=auto;html=1;exitX=0.5;exitY=1;exitDx=0;exitDy=0;entryX=0.5;entryY=1;entryDx=0;entryDy=0;curved=1;" edge="1" parent="1" source="wRI1aaOl5df-rO8w_lBx-73" target="wRI1aaOl5df-rO8w_lBx-70">
          <mxGeometry relative="1" as="geometry" />
        </mxCell>
        <mxCell id="wRI1aaOl5df-rO8w_lBx-73" value="O9&lt;br&gt;G_OLD" style="ellipse;whiteSpace=wrap;html=1;aspect=fixed;fillColor=#647687;strokeColor=#314354;fontColor=#ffffff;" vertex="1" parent="1">
          <mxGeometry x="850" y="1020" width="80" height="80" as="geometry" />
        </mxCell>
        <mxCell id="wRI1aaOl5df-rO8w_lBx-74" value="&lt;font style=&quot;font-size: 16px;&quot;&gt;ref&lt;/font&gt;" style="edgeStyle=orthogonalEdgeStyle;rounded=0;orthogonalLoop=1;jettySize=auto;html=1;exitX=0.5;exitY=1;exitDx=0;exitDy=0;entryX=0.5;entryY=1;entryDx=0;entryDy=0;curved=1;" edge="1" parent="1" source="wRI1aaOl5df-rO8w_lBx-61" target="wRI1aaOl5df-rO8w_lBx-73">
          <mxGeometry relative="1" as="geometry">
            <Array as="points">
              <mxPoint x="560" y="1140" />
              <mxPoint x="890" y="1140" />
            </Array>
          </mxGeometry>
        </mxCell>
        <mxCell id="wRI1aaOl5df-rO8w_lBx-79" style="edgeStyle=orthogonalEdgeStyle;rounded=0;orthogonalLoop=1;jettySize=auto;html=1;exitX=1;exitY=0.5;exitDx=0;exitDy=0;" edge="1" parent="1" source="wRI1aaOl5df-rO8w_lBx-59" target="wRI1aaOl5df-rO8w_lBx-73">
          <mxGeometry relative="1" as="geometry" />
        </mxCell>
      </root>
    </mxGraphModel>
  </diagram>
</mxfile>
